<?xml version="1.0" standalone="no"?><!DOCTYPE svg PUBLIC "-//W3C//DTD SVG 1.1//EN" "http://www.w3.org/Graphics/SVG/1.1/DTD/svg11.dtd"><svg t="1516788047775" class="icon" style="" viewBox="0 0 1024 1024" version="1.1" xmlns="http://www.w3.org/2000/svg" p-id="8980" xmlns:xlink="http://www.w3.org/1999/xlink" width="200" height="200"><defs><style type="text/css"></style></defs><path d="M1017.6 966.4L691.2 640l192-192c12.8-12.8 19.2-32 19.2-51.2s-12.8-38.4-25.6-44.8c-96-76.8-224-102.4-339.2-70.4L364.8 134.4c0-38.4-12.8-76.8-32-108.8C307.2-6.4 256-6.4 230.4 19.2L19.2 230.4c-12.8 12.8-19.2 32-19.2 51.2s12.8 38.4 25.6 44.8c38.4 19.2 70.4 32 108.8 32l140.8 179.2c-32 115.2-6.4 243.2 70.4 339.2 19.2 19.2 38.4 25.6 57.6 25.6s32-6.4 44.8-19.2l198.4-198.4 326.4 326.4c6.4 6.4 12.8 6.4 25.6 6.4s19.2 0 25.6-6.4c0-12.8 0-32-6.4-44.8z m-614.4-128c-70.4-83.2-89.6-192-57.6-294.4l6.4-19.2-172.8-217.6-19.2-6.4h-12.8c-32 0-57.6-12.8-83.2-25.6L275.2 64c19.2 25.6 25.6 57.6 25.6 89.6v19.2l230.4 185.6 19.2-6.4c102.4-32 211.2-12.8 294.4 57.6l-441.6 428.8z" fill="" p-id="8981"></path></svg>