<?xml version="1.0" standalone="no"?><!DOCTYPE svg PUBLIC "-//W3C//DTD SVG 1.1//EN" "http://www.w3.org/Graphics/SVG/1.1/DTD/svg11.dtd"><svg t="1516787930272" class="icon" style="" viewBox="0 0 1024 1024" version="1.1" xmlns="http://www.w3.org/2000/svg" p-id="8050" xmlns:xlink="http://www.w3.org/1999/xlink" width="200" height="200"><defs><style type="text/css"></style></defs><path d="M512 65.984C266.08 65.984 65.984 266.08 65.984 512c0 245.952 200.064 446.016 446.016 446.016 245.952 0 446.016-200.064 446.016-446.016C958.016 266.08 757.952 65.984 512 65.984zM512 894.016C301.344 894.016 129.984 722.624 129.984 512 129.984 301.344 301.344 129.984 512 129.984c210.624 0 382.016 171.36 382.016 382.016C894.016 722.624 722.624 894.016 512 894.016z" p-id="8051"></path><path d="M512 255.2c-77.216 0-140.032 62.272-140.032 138.816 0 17.664 14.336 32 32 32s32-14.336 32-32c0-41.952 33.376-74.816 76.032-74.816 41.952 0 76.032 34.368 76.032 76.64 0 15.968-22.848 38.784-43.008 58.944C514.56 485.216 480 519.744 480 566.016l0 45.696c0 17.696 14.336 32 32 32s32-14.304 32-32l0-45.696c0-19.744 23.52-43.264 46.272-65.984 28.928-28.928 61.76-61.728 61.76-104.192C652.032 318.272 589.216 255.2 512 255.2z" p-id="8052"></path><path d="M512 753.92m-48 0a1.5 1.5 0 1 0 96 0 1.5 1.5 0 1 0-96 0Z" p-id="8053"></path></svg>