<?xml version="1.0" standalone="no"?><!DOCTYPE svg PUBLIC "-//W3C//DTD SVG 1.1//EN" "http://www.w3.org/Graphics/SVG/1.1/DTD/svg11.dtd"><svg t="1516787645306" class="icon" style="" viewBox="0 0 1024 1024" version="1.1" xmlns="http://www.w3.org/2000/svg" p-id="6669" xmlns:xlink="http://www.w3.org/1999/xlink" width="200" height="200"><defs><style type="text/css"></style></defs><path d="M477.866667 366.933333v384h64V371.2l170.666666 166.4 38.4-38.4L512 268.8l-243.2 226.133333 38.4 38.4z" p-id="6670"></path><path d="M985.6 311.466667c-25.6-59.733333-64-115.2-110.933333-162.133334-46.933333-46.933333-102.4-85.333333-162.133334-110.933333-128-51.2-273.066667-51.2-401.066666 0-59.733333 25.6-115.2 64-162.133334 110.933333S64 251.733333 38.4 311.466667C12.8 375.466667 0 443.733333 0 512s12.8 136.533333 38.4 200.533333c25.6 59.733333 64 115.2 110.933333 162.133334 46.933333 46.933333 102.4 85.333333 162.133334 110.933333 64 25.6 132.266667 38.4 200.533333 38.4s136.533333-12.8 200.533333-38.4c59.733333-25.6 115.2-64 162.133334-110.933333 46.933333-46.933333 85.333333-102.4 110.933333-162.133334 25.6-64 38.4-132.266667 38.4-200.533333s-12.8-136.533333-38.4-200.533333zM512 64c59.733333 0 119.466667 12.8 174.933333 38.4 51.2 21.333333 102.4 51.2 145.066667 93.866667 42.666667 42.666667 72.533333 89.6 93.866667 145.066666 25.6 51.2 38.4 115.2 38.4 170.666667 0 59.733333-12.8 119.466667-38.4 170.666667-21.333333 51.2-51.2 102.4-93.866667 145.066666-42.666667 42.666667-89.6 72.533333-145.066667 93.866667-51.2 25.6-115.2 38.4-170.666666 38.4-59.733333 0-119.466667-12.8-174.933334-38.4-51.2-21.333333-102.4-51.2-145.066666-93.866667-42.666667-42.666667-72.533333-89.6-93.866667-145.066666-25.6-51.2-38.4-110.933333-38.4-170.666667s12.8-119.466667 38.4-174.933333c21.333333-51.2 51.2-102.4 93.866667-145.066667 42.666667-42.666667 89.6-72.533333 145.066666-93.866667 51.2-21.333333 110.933333-34.133333 170.666667-34.133333z" p-id="6671"></path></svg>